<svg xmlns="http://www.w3.org/2000/svg" width="1200" height="630" viewBox="0 0 1200 630" role="img" aria-label="lemonkai social card">
  <defs>
    <linearGradient id="bg" x1="0%" x2="100%" y1="0%" y2="100%">
      <stop offset="0%" stop-color="#08111f" />
      <stop offset="100%" stop-color="#0f213d" />
    </linearGradient>
    <linearGradient id="accent" x1="0%" x2="100%" y1="0%" y2="100%">
      <stop offset="0%" stop-color="#6cc4ff" />
      <stop offset="100%" stop-color="#2e83ff" />
    </linearGradient>
  </defs>
  <rect width="1200" height="630" fill="url(#bg)" />
  <g opacity="0.18">
    <path d="M0 70h1200M0 140h1200M0 210h1200M0 280h1200M0 350h1200M0 420h1200M0 490h1200M0 560h1200" stroke="#6cc4ff" />
    <path d="M80 0v630M200 0v630M320 0v630M440 0v630M560 0v630M680 0v630M800 0v630M920 0v630M1040 0v630M1160 0v630" stroke="#6cc4ff" />
  </g>
  <circle cx="980" cy="170" r="160" fill="#103766" opacity="0.65" />
  <circle cx="1030" cy="210" r="90" fill="#0bc8ff" opacity="0.12" />
  <text x="96" y="175" fill="#6cc4ff" font-family="'IBM Plex Mono', monospace" font-size="28" letter-spacing="6">LEMONKAI / KAI NING</text>
  <text x="96" y="295" fill="#eef4ff" font-family="'Space Grotesk', sans-serif" font-size="78" font-weight="700">
    Kubernetes-first notes
  </text>
  <text x="96" y="382" fill="#eef4ff" font-family="'Space Grotesk', sans-serif" font-size="78" font-weight="700">
    on GitOps, agents, and infra
  </text>
  <text x="96" y="474" fill="#9fb5d5" font-family="'Space Grotesk', sans-serif" font-size="34">
    Production-minded writing on clusters, rollout safety, observability, and automation.
  </text>
  <rect x="96" y="528" width="322" height="18" rx="9" fill="url(#accent)" />
</svg>
